# xmcd
# 
# Track frame offsets:
#     182
#     18530
#     33610
#     54257
#     68762
#     81625
#     94397
#     108642
#     126200
#     137987
#     151045
#     164227
#     177145
#     193312
# 
# Disc length: 2795
# 
# Revision: 2
# Processed by: cddbd v1.5.2PL0 Copyright (c) Steve Scherf et al.
# Submitted via: fre:ac v1.0.17
# 
DISCID=ce0ae90e
DTITLE=Grupo Raça - Feito Pra Você
DYEAR=1992
DGENRE=Pagode
TTITLE0=O Teu Chamego
TTITLE1=No Pagode do Vavá - Perdoa - Argumento - Guardei Minha Viola - Coração Leviano - Eu Canto Samba - Foi Um Rio Que Passou Em Minha Vida 
TTITLE2=Crença da Ilusão
TTITLE3=Muambeiro
TTITLE4=Caminhos da Paixão
TTITLE5=Quem Ama Não Marca
TTITLE6=Feito pra Você
TTITLE7=Minha Morada
TTITLE8=Sou do Sereno
TTITLE9=Machucou
TTITLE10=Nao Fiz por Merecer
TTITLE11=Se me Chamar, Eu Vou
TTITLE12=Seja Mais Você
TTITLE13=Dona da Minha Sina
EXTD=
EXTT0=
EXTT1=No Pagode do Vava\nPerdoa\nArgumento\nGuardei Minha Viola\nCoracao Leviano\nEu Canto Samba\nFoi um Rio que Passou na Minha Vida
EXTT2=
EXTT3=
EXTT4=
EXTT5=
EXTT6=
EXTT7=
EXTT8=
EXTT9=
EXTT10=
EXTT11=
EXTT12=
EXTT13=
PLAYORDER=
